<svg xmlns="http://www.w3.org/2000/svg" version="1.1" xmlns:xlink="http://www.w3.org/1999/xlink" xmlns:svgjs="http://svgjs.dev/svgjs" width="1500" height="1500" viewBox="0 0 1500 1500"><rect width="1500" height="1500" fill="#000000"></rect><g transform="matrix(0.6666666666666666,0,0,0.6666666666666666,250,250.00045570398555)"><svg viewBox="0 0 280 280" data-background-color="#516452" preserveAspectRatio="xMidYMid meet" height="1500" width="1500" xmlns="http://www.w3.org/2000/svg" xmlns:xlink="http://www.w3.org/1999/xlink"><g id="tight-bounds" transform="matrix(1,0,0,1,0,0.0001275971159770961)"><svg viewBox="0 0 280 280" height="280" width="280"><g><svg viewBox="0 0 280 280" height="280" width="280"><g><svg viewBox="0 0 280 280" height="280" width="280"><g id="textblocktransform"><svg viewBox="0 0 280 280" height="280" width="280" id="textblock"><g><svg viewBox="0 0 280 280" height="280" width="280"><g transform="matrix(1,0,0,1,57.50420886156945,57.50420886156945)"><svg viewBox="0 0 164.9915822768611 164.9915822768611" height="164.9915822768611" width="164.9915822768611"><g id="icon-0"><circle r="82" cx="82.49579113843055" cy="82.49579113843055" fill="#ffffff" data-fill-palette-color="accent"></circle><svg xmlns="http://www.w3.org/2000/svg" xmlns:xlink="http://www.w3.org/1999/xlink" version="1.1" x="24.74873734152917" y="24.748737341529164" viewBox="13.774000000000004 0.9999999999999964 72.69366248081582 97.78495524143644" enable-background="new 0 0 100 100" xml:space="preserve" height="115.49410759380275" width="115.49410759380275" class="icon-xg-0" data-fill-palette-color="quaternary" id="xg-0"><path fill-rule="evenodd" clip-rule="evenodd" d="M42.907 29.392c0.293 0.537-0.19 0.955 0.121 1.494 1.173-2.141 1.445-4.529 2.424-6.698 0.137 1.184-0.03 2.398 0.385 3.659 2.606-1.977 5.463-3.48 8.146-5.257 1.09-0.721 1.699-1.899 2.287-3.038 2.071-4.013 3.613-8.264 5.537-12.344 1.039-2.204 2.15-4.36 3.839-6.208-0.663 1.919-1.345 3.832-1.985 5.758-1.185 3.559-2.266 7.143-2.862 10.861-0.407 2.539-0.13 5.014 0.46 7.479 0.069 0.29 0.16 0.574 0.283 1.005-1.623-0.346-3.122-0.575-4.561-1.007-0.781-0.234-1.375-0.079-2.01 0.268-5.092 2.78-8.634 7.001-11.282 12.075-2.765 5.298-3.261 10.772-1.427 16.46 0.252 0.781 0.232 1.591 0.096 2.374-0.211 1.214-0.67 1.402-2.723 1.266-0.06 0.458 0.295 0.697 0.537 0.971 0.584 0.658 1.195 1.417 2.188 1.209 0.985-0.206 1.115-1.183 1.325-1.972 0.794-2.992 0.901-6.061 0.914-9.134 0.005-1.267 0.001-2.534 0.143-3.855 1.241 1.159 2.015 2.6 2.687 4.094 2.082 4.635 3.375 9.53 4.555 14.445 0.571 2.381 2.051 3.992 3.743 5.604 0.146-0.468-0.266-0.613-0.401-0.885-0.159-0.319-0.414-0.592-0.569-0.914-0.295-0.612-0.672-1.319-0.164-1.908 0.545-0.631 1.289-0.247 1.878 0.049 2.398 1.204 4.603 2.731 6.756 4.318 8.988 6.625 16.445 14.674 22.259 24.212 1.508 2.474 1.314 1.845-0.828 3.065-3.646 2.079-7.603 2.238-11.639 1.651-3.001-0.437-5.977-1.007-8.901-1.833-1.052-0.297-2.019-0.644-2.833-1.432-0.56-0.543-1.286-0.91-2.369-1.037 0.905 0.656 1.86 0.794 2.43 1.558-5.948 1.112-21.983-6.289-25.493-11.786 0.987-0.043 1.911-0.216 2.824-0.449 0.915-0.233 1.818-0.051 2.749 0.048-1.025-0.895-2.224-1.368-3.584-1.268-6.025 0.445-12.051 0.735-18.068-0.072-1.999-0.269-3.945-0.768-6-1.74 4.426-1.377 8.53-2.882 12.477-4.79 1.853-0.896 3.626-1.886 4.698-3.742 0.919 0.466 1.449 1.305 2.298 1.784-1.18-1.856-2.99-3.247-3.931-5.318-0.24 1.279 0.229 2.601-0.353 3.844-2.013-2.18-2.73-11.485-1.188-19.293C29.706 43.177 34.59 35.186 42.907 29.392zM38.793 56.162c-3.339-6.651-2.363-13.1 0.732-19.481-0.188 0.06-0.287 0.121-0.34 0.209-2.416 4.049-3.813 8.397-3.214 13.132C36.256 52.265 36.676 54.624 38.793 56.162zM68.694 93.655c4.174 3.498 13.055 4.806 16.021 2.334C79.13 96.723 73.964 95.777 68.694 93.655zM64.674 91.303c-2.171-1.574-3.744-4.299-6.952-3.583 0.251 0.524 1.171 0.2 1.399 0.819C60.122 91.246 62.469 91.14 64.674 91.303zM47.176 85.149c-0.761-1.949-0.269-3.726 0.887-5.644C46.296 80.997 45.978 83.325 47.176 85.149zM42.357 76.79c-1.391 1.327-1.669 3.243-0.699 4.805C41.172 79.892 41.606 78.337 42.357 76.79zM44.095 83.269c-0.706-1.756 0.111-3.261 0.808-4.985C43.403 79.766 43.101 81.71 44.095 83.269z" fill="#000000" data-fill-palette-color="quaternary"></path><path fill-rule="evenodd" clip-rule="evenodd" d="M66.761 61.803c0.724 1.915 0.603 6.253-0.262 9.434-2.078-1.471-4.098-2.9-6.271-4.439C63.232 66.117 65.34 64.524 66.761 61.803z" fill="#000000" data-fill-palette-color="quaternary"></path></svg></g></svg></g><g id="text-0"><path d="M31.092 103.153v0c-0.796 2.218-1.863 3.884-3.201 4.999-1.337 1.115-2.944 1.336-4.819 0.663v0c-0.196-0.071-0.372-0.141-0.526-0.21-0.154-0.07-0.275-0.131-0.363-0.184v0c-0.648-0.347-1.412-0.858-2.293-1.532-0.887-0.676-1.824-1.424-2.811-2.243-0.984-0.825-1.955-1.628-2.912-2.409-0.955-0.786-1.841-1.477-2.658-2.07-0.817-0.594-1.507-0.992-2.072-1.194v0c-0.634-0.228-1.024-0.135-1.172 0.276v0c-0.166 0.463-0.023 1.161 0.428 2.096 0.445 0.932 1.156 2 2.134 3.202v0l-0.193 0.178c-1.609-0.578-2.883-1.393-3.822-2.446-0.945-1.055-1.612-2.245-2-3.572-0.391-1.321-0.539-2.694-0.442-4.118 0.097-1.425 0.38-2.793 0.851-4.105v0c0.587-1.635 1.402-3.077 2.444-4.326 1.042-1.25 2.215-2.155 3.519-2.718 1.297-0.564 2.652-0.593 4.065-0.085v0c2.535 0.91 3.956 3.166 4.265 6.768v0c1.067-1.677 2.242-2.768 3.526-3.274 1.283-0.505 2.52-0.544 3.711-0.116v0c1.046 0.375 1.988 1.068 2.827 2.078 0.835 1.001 1.492 2.231 1.969 3.69 0.482 1.468 0.704 3.11 0.667 4.928-0.031 1.82-0.405 3.728-1.122 5.724zM16.102 96.162v-0.001c0.428-1.112 0.603-2.158 0.525-3.137-0.074-0.971-0.323-1.801-0.748-2.49-0.431-0.691-0.964-1.151-1.597-1.378v0c-0.824-0.296-1.716-0.122-2.676 0.52-0.963 0.649-1.781 1.911-2.454 3.786v0c0.499 0.065 0.985 0.164 1.459 0.299 0.476 0.128 0.933 0.271 1.37 0.428v0c0.71 0.255 1.401 0.55 2.076 0.884 0.678 0.344 1.359 0.706 2.045 1.088zM27.003 100.526v0c0.375-1.046 0.492-2.048 0.35-3.007-0.136-0.957-0.456-1.788-0.962-2.492-0.499-0.701-1.104-1.18-1.813-1.434v0c-0.976-0.35-2.045-0.212-3.207 0.415-1.156 0.629-2.187 1.897-3.094 3.804v0c0.72 0.366 1.453 0.854 2.2 1.465 0.74 0.609 1.451 1.19 2.132 1.742 0.684 0.546 1.32 0.925 1.909 1.137v0c0.513 0.184 0.979 0.173 1.397-0.035 0.418-0.208 0.78-0.739 1.088-1.595z" fill="#ffffff" data-fill-palette-color="primary"></path><path d="M45.531 74.1v0c-0.401 0.574-0.934 1.031-1.599 1.372-0.659 0.344-1.429 0.463-2.308 0.358-0.87-0.107-1.804-0.509-2.803-1.208v0c-0.894-0.625-1.855-1.477-2.883-2.557-1.028-1.08-2.082-2.227-3.163-3.442-1.075-1.212-2.147-2.363-3.215-3.456-1.074-1.096-2.094-1.969-3.061-2.619v0c-0.911-0.636-1.631-0.98-2.162-1.031v0l-0.123-0.037c-0.513-0.712-0.753-1.496-0.721-2.352 0.036-0.862 0.283-1.621 0.742-2.278v0c0.521-0.745 1.267-1.213 2.239-1.405 0.968-0.186 2.108 0.18 3.421 1.098v0c0.701 0.49 1.476 1.155 2.326 1.996 0.846 0.846 1.733 1.77 2.66 2.77 0.931 0.995 1.841 1.985 2.73 2.968 0.895 0.987 1.727 1.877 2.497 2.669 0.774 0.796 1.449 1.394 2.022 1.796v0c0.59 0.413 1.059 0.613 1.405 0.599 0.34-0.017 0.584-0.13 0.73-0.339v0c0.162-0.232 0.227-0.519 0.195-0.862-0.03-0.333-0.096-0.585-0.199-0.755v0l0.237-0.216c0.752 0.558 1.281 1.253 1.588 2.083 0.301 0.827 0.403 1.674 0.305 2.542-0.099 0.859-0.386 1.628-0.86 2.306z" fill="#ffffff" data-fill-palette-color="primary"></path><path d="M68.76 49.98v0c-0.683 0.59-1.472 0.881-2.369 0.873-0.901-0.013-1.792-0.529-2.673-1.548v0c-0.084-0.097-0.167-0.194-0.251-0.29-0.084-0.097-0.159-0.205-0.227-0.325v0c0.426 1.687 0.514 3.128 0.265 4.323-0.254 1.189-0.752 2.105-1.496 2.747v0c-0.688 0.594-1.542 0.914-2.561 0.959-1.02 0.045-2.126-0.241-3.317-0.857-1.182-0.616-2.349-1.591-3.503-2.926v0c-1.184-1.37-2.052-2.76-2.603-4.17-0.547-1.405-0.828-2.75-0.845-4.036-0.011-1.29 0.19-2.447 0.604-3.471 0.414-1.025 0.972-1.841 1.675-2.448v0c0.784-0.678 1.697-1.048 2.737-1.111 1.04-0.063 2.127 0.324 3.259 1.161v0c-0.229-0.389-0.446-0.732-0.648-1.028-0.207-0.301-0.353-0.501-0.436-0.598v0c-0.443-0.543-0.514-1.166-0.215-1.87 0.299-0.704 0.762-1.326 1.389-1.868v0c0.55-0.475 1.162-0.817 1.836-1.026 0.674-0.209 1.32-0.135 1.939 0.22v0l0.213 0.123c0.218 0.737 0.532 1.578 0.94 2.524 0.413 0.951 0.872 1.916 1.379 2.893 0.506 0.987 1.035 1.918 1.586 2.793 0.552 0.876 1.081 1.606 1.588 2.192v0c0.559 0.647 1.013 1.033 1.362 1.159 0.349 0.126 0.62 0.105 0.813-0.062v0c0.336-0.291 0.439-0.789 0.31-1.496v0l0.328-0.083c0.577 0.667 0.889 1.461 0.936 2.381 0.038 0.919-0.126 1.821-0.491 2.706-0.37 0.88-0.878 1.6-1.524 2.159zM60.747 50.392v0c0.509-0.44 0.681-1.385 0.514-2.834-0.172-1.444-0.771-3.214-1.797-5.308v0c-0.109-0.208-0.216-0.414-0.321-0.617-0.11-0.199-0.22-0.384-0.332-0.554v0c-0.94-0.46-1.713-0.69-2.319-0.692-0.605-0.011-1.074 0.127-1.405 0.413v0c-0.494 0.427-0.726 1.081-0.694 1.962 0.026 0.885 0.246 1.834 0.659 2.847 0.413 1.013 0.959 1.912 1.636 2.697v0c0.929 1.075 1.744 1.771 2.447 2.09 0.702 0.318 1.239 0.317 1.612-0.004z" fill="#ffffff" data-fill-palette-color="primary"></path><path d="M91.692 36.017v0c-1.551 0.72-3.024 0.977-4.419 0.772-1.398-0.212-2.632-0.76-3.702-1.644-1.068-0.892-1.906-1.995-2.516-3.308v0c-0.578-1.246-0.916-2.603-1.012-4.073-0.096-1.47 0.081-2.944 0.53-4.421 0.456-1.481 1.213-2.846 2.274-4.096 1.066-1.252 2.479-2.287 4.238-3.103v0c1.74-0.808 3.192-1.063 4.355-0.764 1.172 0.302 1.949 0.865 2.332 1.69v0c0.403 0.867 0.336 1.867-0.2 2.998-0.53 1.129-1.628 2.081-3.295 2.855v0c-0.07-0.391-0.16-0.783-0.268-1.178-0.109-0.395-0.239-0.754-0.389-1.077v0c-0.23-0.495-0.531-0.863-0.904-1.106-0.373-0.243-0.827-0.239-1.364 0.01v0c-0.495 0.23-0.913 0.695-1.256 1.396-0.349 0.704-0.513 1.582-0.492 2.633 0.012 1.049 0.313 2.208 0.902 3.478v0c0.578 1.246 1.254 2.157 2.026 2.734 0.769 0.586 1.563 0.896 2.382 0.932 0.812 0.039 1.585-0.112 2.317-0.453v0c0.959-0.445 1.766-1.128 2.422-2.049 0.665-0.918 0.988-1.917 0.968-2.999v0l0.417-0.015c0.567 1.221 0.774 2.387 0.621 3.497-0.15 1.116-0.534 2.152-1.152 3.107-0.612 0.952-1.349 1.788-2.209 2.507-0.87 0.716-1.739 1.275-2.606 1.677z" fill="#ffffff" data-fill-palette-color="primary"></path><path d="M127.635 25.743v0c-0.837 0.136-1.66 0.068-2.468-0.203-0.809-0.278-1.505-0.762-2.088-1.451-0.584-0.696-0.962-1.58-1.136-2.65v0c-0.179-1.103-0.111-2.386 0.204-3.849v0c0.372-0.272 0.805-0.673 1.299-1.203 0.495-0.524 0.913-1.096 1.255-1.718 0.344-0.615 0.472-1.192 0.385-1.73v0c-0.079-0.485-0.324-0.838-0.735-1.058-0.419-0.225-0.897-0.294-1.435-0.207v0c-0.665 0.108-1.256 0.415-1.774 0.923-0.526 0.501-0.958 1.114-1.298 1.837-0.346 0.725-0.577 1.485-0.693 2.282-0.124 0.791-0.13 1.532-0.018 2.223v0c0.108 0.665 0.292 1.272 0.552 1.823 0.259 0.545 0.449 1.189 0.57 1.934v0c0.187 1.15 0.038 2.17-0.445 3.059-0.483 0.89-1.326 1.433-2.529 1.628v0c-1.097 0.178-2.037-0.048-2.821-0.677-0.785-0.636-1.282-1.593-1.489-2.869v0c-0.108-0.665-0.168-1.559-0.179-2.682-0.013-1.13-0.001-2.38 0.035-3.75 0.043-1.371 0.07-2.784 0.08-4.239 0.015-1.462-0.001-2.865-0.049-4.207-0.047-1.343-0.156-2.539-0.327-3.589v0c-0.091-0.558-0.207-1.068-0.35-1.529-0.143-0.461-0.337-0.818-0.584-1.072v0l-0.037-0.229c0.455-0.729 0.989-1.3 1.605-1.713 0.615-0.414 1.241-0.672 1.879-0.776v0c0.977-0.159 1.864 0.052 2.66 0.632 0.802 0.572 1.313 1.536 1.534 2.892v0c0.117 0.718 0.161 1.604 0.135 2.659-0.02 1.054-0.075 2.164-0.166 3.331-0.084 1.166-0.185 2.284-0.304 3.354v0c0.432-0.909 0.936-1.857 1.513-2.844 0.57-0.986 1.255-1.851 2.054-2.595 0.8-0.744 1.762-1.207 2.885-1.389v0c1.303-0.211 2.393 0.038 3.273 0.748 0.873 0.711 1.402 1.641 1.588 2.791v0c0.187 1.15-0.03 2.443-0.649 3.881-0.619 1.437-1.826 2.762-3.621 3.974v0c0.452 0.684 1.018 1.274 1.7 1.77 0.686 0.489 1.408 0.836 2.163 1.04 0.75 0.206 1.433 0.258 2.052 0.158v0c0.306-0.05 0.563-0.143 0.773-0.279v0l0.267 0.193c-0.397 1.586-1.092 2.834-2.083 3.745-0.992 0.905-2.053 1.448-3.183 1.631z" fill="#ffffff" data-fill-palette-color="primary"></path><path d="M153.089 25.791v0c-1.592-0.18-2.892-0.55-3.899-1.11-1.008-0.554-1.731-1.201-2.169-1.942-0.431-0.74-0.608-1.458-0.53-2.154v0c0.11-0.977 0.643-1.794 1.598-2.451 0.962-0.664 2.19-0.912 3.682-0.744v0c-0.148 1.311-0.099 2.38 0.146 3.208 0.246 0.82 0.615 1.428 1.105 1.822 0.491 0.394 0.98 0.619 1.469 0.674v0c0.589 0.066 1.103-0.052 1.544-0.354 0.441-0.303 0.69-0.711 0.748-1.227v0c0.082-0.723-0.222-1.394-0.911-2.013-0.681-0.626-1.577-1.34-2.685-2.143v0c-0.555-0.428-1.153-0.919-1.795-1.473-0.642-0.553-1.169-1.199-1.581-1.936-0.411-0.738-0.563-1.581-0.456-2.532v0c0.113-1.004 0.505-1.86 1.174-2.57 0.662-0.704 1.501-1.267 2.518-1.688 1.01-0.421 2.081-0.704 3.216-0.847 1.141-0.149 2.237-0.164 3.287-0.045v0c1.987 0.224 3.437 0.794 4.35 1.71 0.914 0.909 1.32 1.812 1.219 2.709v0c-0.088 0.776-0.554 1.428-1.4 1.956-0.839 0.529-2.058 0.703-3.656 0.522v0c0.175-1.308 0.015-2.295-0.479-2.96-0.5-0.673-1.071-1.046-1.714-1.119v0c-0.462-0.052-0.866 0.048-1.212 0.301-0.339 0.246-0.54 0.64-0.601 1.182v0c-0.069 0.615 0.071 1.17 0.422 1.663 0.35 0.5 0.807 0.958 1.369 1.374 0.563 0.416 1.148 0.814 1.756 1.194v0c0.83 0.507 1.607 1.038 2.33 1.595 0.717 0.548 1.287 1.145 1.709 1.788 0.421 0.651 0.584 1.401 0.488 2.25v0c-0.131 1.157-0.72 2.178-1.768 3.063-1.055 0.884-2.399 1.538-4.033 1.964-1.641 0.431-3.388 0.543-5.241 0.333z" fill="#ffffff" data-fill-palette-color="primary"></path><path d="M180.528 31.85v0c-1.028-0.421-1.712-1.104-2.052-2.051-0.338-0.953-0.262-2.027 0.228-3.223v0c0.265-0.648 0.695-1.458 1.289-2.43 0.588-0.974 1.267-2.038 2.038-3.193 0.764-1.157 1.536-2.34 2.314-3.548 0.772-1.212 1.492-2.394 2.16-3.546 0.668-1.152 1.193-2.196 1.576-3.131v0c0.479-1.171 0.672-2.086 0.577-2.743v0l0.088-0.215c0.774-0.381 1.532-0.588 2.272-0.62 0.74-0.032 1.41 0.075 2.008 0.32v0c0.91 0.372 1.557 1.012 1.942 1.919 0.383 0.913 0.309 2.018-0.221 3.314v0c-0.283 0.692-0.728 1.503-1.334 2.433-0.606 0.93-1.265 1.89-1.975 2.88-0.719 0.993-1.406 1.916-2.06 2.769v0c0.817-0.699 1.781-1.33 2.891-1.894 1.12-0.568 2.28-0.94 3.481-1.119 1.207-0.175 2.336-0.048 3.389 0.384v0c1.203 0.492 1.861 1.194 1.975 2.106 0.114 0.912-0.055 1.92-0.506 3.023v0c-0.411 1.003-0.955 2.032-1.633 3.085-0.685 1.051-1.349 2.052-1.993 3.004-0.638 0.954-1.099 1.78-1.385 2.478v0c-0.413 1.009-0.321 1.637 0.278 1.881v0c0.262 0.107 0.527 0.125 0.796 0.053 0.269-0.072 0.49-0.185 0.663-0.34v0l0.18 0.281c-0.382 0.935-0.934 1.633-1.654 2.095-0.72 0.462-1.504 0.716-2.352 0.761-0.839 0.042-1.63-0.089-2.371-0.392v0c-0.985-0.403-1.739-1.093-2.262-2.071-0.521-0.984-0.477-2.221 0.132-3.71v0c0.342-0.835 0.829-1.698 1.463-2.588 0.627-0.893 1.238-1.756 1.834-2.588 0.589-0.836 1.011-1.565 1.266-2.188v0c0.334-0.816 0.214-1.342-0.359-1.577v0c-0.53-0.217-1.214-0.188-2.054 0.087-0.84 0.275-1.655 0.712-2.447 1.312-0.791 0.6-1.415 1.254-1.872 1.962v0c-0.12 0.169-0.235 0.388-0.344 0.656v0c-0.245 0.598-0.389 1.208-0.433 1.83-0.052 0.626-0.23 1.31-0.534 2.052v0c-0.451 1.103-1.115 1.908-1.992 2.414-0.877 0.507-1.879 0.53-3.007 0.068z" fill="#ffffff" data-fill-palette-color="primary"></path><path d="M218.3 54.231v0c-0.703-0.566-1.131-1.29-1.284-2.174-0.149-0.889 0.199-1.858 1.043-2.907v0c0.08-0.1 0.16-0.199 0.241-0.299 0.08-0.1 0.173-0.194 0.278-0.282v0c-1.583 0.722-2.985 1.068-4.205 1.037-1.215-0.036-2.206-0.362-2.971-0.978v0c-0.708-0.57-1.176-1.352-1.404-2.348-0.227-0.995-0.145-2.134 0.248-3.417 0.394-1.273 1.143-2.597 2.25-3.971v0c1.135-1.411 2.347-2.514 3.635-3.31 1.284-0.79 2.557-1.309 3.818-1.555 1.267-0.242 2.441-0.252 3.524-0.03 1.082 0.223 1.985 0.625 2.709 1.208v0c0.808 0.65 1.336 1.481 1.584 2.494 0.248 1.012 0.063 2.15-0.557 3.414v0c0.342-0.296 0.64-0.57 0.895-0.822 0.259-0.258 0.429-0.437 0.51-0.536v0c0.455-0.533 1.055-0.715 1.801-0.547 0.746 0.168 1.442 0.512 2.086 1.031v0c0.566 0.456 1.013 0.997 1.34 1.622 0.326 0.625 0.37 1.274 0.131 1.946v0l-0.082 0.232c-0.685 0.347-1.457 0.807-2.315 1.378-0.862 0.577-1.728 1.202-2.598 1.876-0.88 0.675-1.701 1.362-2.463 2.062-0.762 0.7-1.386 1.352-1.872 1.955v0c-0.536 0.666-0.835 1.182-0.895 1.548-0.061 0.366 0.008 0.629 0.207 0.789v0c0.346 0.279 0.855 0.291 1.527 0.036v0l0.141 0.308c-0.553 0.687-1.278 1.137-2.174 1.349-0.897 0.202-1.814 0.204-2.751 0.003-0.932-0.206-1.731-0.576-2.397-1.112zM216.456 46.421v0c0.525 0.422 1.484 0.421 2.88-0.002 1.39-0.428 3.023-1.335 4.899-2.721v0c0.185-0.145 0.369-0.287 0.55-0.426 0.176-0.144 0.338-0.286 0.486-0.426v0c0.284-1.008 0.372-1.81 0.263-2.406-0.098-0.598-0.318-1.033-0.658-1.308v0c-0.509-0.409-1.193-0.52-2.054-0.331-0.866 0.185-1.76 0.571-2.683 1.16-0.923 0.588-1.709 1.286-2.359 2.094v0c-0.891 1.107-1.429 2.034-1.617 2.782-0.187 0.748-0.089 1.276 0.293 1.584z" fill="#ffffff" data-fill-palette-color="primary"></path><path d="M234.551 71.803v0c-0.537-0.758-0.705-1.654-0.504-2.687 0.21-1.031 0.884-1.95 2.021-2.755v0c0.549-0.389 1.218-0.767 2.005-1.135 0.787-0.368 1.605-0.728 2.453-1.08 0.846-0.343 1.638-0.681 2.375-1.014 0.732-0.329 1.31-0.643 1.733-0.943v0c0.445-0.315 0.745-0.643 0.9-0.983 0.151-0.346 0.137-0.646-0.042-0.899v0c-0.288-0.407-0.854-0.624-1.699-0.652v0l-0.017-0.286c0.329-0.258 0.783-0.468 1.361-0.629 0.588-0.16 1.227-0.213 1.918-0.158 0.687 0.05 1.377 0.25 2.071 0.6 0.688 0.354 1.301 0.911 1.837 1.669v0c0.794 1.121 1.048 2.162 0.763 3.123-0.281 0.966-0.878 1.772-1.79 2.418v0c-0.143 0.101-0.298 0.203-0.465 0.304-0.167 0.102-0.333 0.194-0.496 0.278v0c1.911-0.214 3.527-0.163 4.849 0.155 1.317 0.322 2.23 0.842 2.739 1.562v0c0.479 0.676 0.567 1.36 0.265 2.052-0.302 0.692-0.824 1.301-1.565 1.826v0c-0.676 0.479-1.458 0.83-2.347 1.055-0.885 0.23-1.735 0.247-2.551 0.049-0.822-0.194-1.484-0.669-1.987-1.426v0l-0.022-0.17c0.534-0.411 0.839-0.895 0.915-1.452 0.077-0.566-0.034-1.061-0.333-1.484v0c-0.405-0.571-1.068-0.902-1.99-0.993-0.925-0.095-1.927 0.238-3.003 1.001v0c-0.654 0.463-1.31 1.039-1.969 1.728-0.653 0.685-1.244 1.215-1.771 1.588v0c-0.637 0.451-1.325 0.715-2.063 0.792-0.734 0.082-1.42-0.001-2.058-0.25-0.633-0.253-1.144-0.654-1.533-1.204z" fill="#ffffff" data-fill-palette-color="primary"></path><path d="M252.516 107.192v0c-0.288-0.798-0.374-1.619-0.257-2.463 0.123-0.846 0.47-1.62 1.04-2.32 0.576-0.702 1.374-1.238 2.394-1.606v0c1.051-0.38 2.325-0.551 3.82-0.512v0c0.336 0.315 0.81 0.666 1.423 1.053 0.606 0.389 1.246 0.695 1.921 0.916 0.668 0.224 1.258 0.243 1.771 0.058v0c0.462-0.167 0.763-0.473 0.903-0.918 0.144-0.453 0.123-0.936-0.062-1.448v0c-0.229-0.633-0.64-1.157-1.235-1.573-0.59-0.424-1.272-0.736-2.045-0.935-0.776-0.206-1.566-0.293-2.371-0.26-0.8 0.024-1.529 0.156-2.188 0.394v0c-0.633 0.229-1.196 0.522-1.69 0.88-0.487 0.355-1.085 0.661-1.794 0.917v0c-1.095 0.396-2.125 0.439-3.089 0.129-0.964-0.31-1.653-1.038-2.068-2.183v0c-0.378-1.045-0.33-2.011 0.144-2.898 0.48-0.89 1.328-1.554 2.543-1.994v0c0.633-0.229 1.501-0.453 2.603-0.673 1.108-0.222 2.339-0.441 3.692-0.659 1.356-0.211 2.749-0.446 4.18-0.706 1.44-0.256 2.815-0.531 4.126-0.826 1.311-0.295 2.466-0.623 3.466-0.985v0c0.532-0.192 1.011-0.401 1.438-0.628 0.427-0.226 0.742-0.483 0.945-0.771v0l0.219-0.079c0.8 0.312 1.46 0.732 1.98 1.26 0.52 0.528 0.89 1.096 1.11 1.703v0c0.337 0.931 0.294 1.841-0.129 2.732-0.414 0.894-1.267 1.575-2.558 2.042v0c-0.684 0.247-1.546 0.455-2.588 0.624-1.039 0.175-2.141 0.327-3.304 0.454-1.162 0.134-2.279 0.241-3.353 0.321v0c0.973 0.257 1.998 0.577 3.075 0.961 1.074 0.377 2.051 0.891 2.93 1.539 0.879 0.649 1.512 1.508 1.899 2.578v0c0.449 1.241 0.406 2.359-0.129 3.354-0.537 0.989-1.354 1.682-2.449 2.078v0c-1.095 0.396-2.407 0.423-3.934 0.08-1.527-0.343-3.052-1.284-4.576-2.823v0c-0.588 0.571-1.063 1.237-1.425 1.997-0.353 0.765-0.561 1.538-0.622 2.319-0.063 0.775 0.011 1.456 0.224 2.045v0c0.105 0.291 0.244 0.527 0.418 0.709v0l-0.14 0.297c-1.632-0.097-2.987-0.549-4.066-1.354-1.072-0.808-1.803-1.75-2.192-2.826z" fill="#ffffff" data-fill-palette-color="primary"></path><path d="M10.486 142.524c0-1.795 1.455-3.25 3.25-3.25 1.795 0 3.25 1.455 3.25 3.25 0 1.795-1.455 3.25-3.25 3.249-1.795 0-3.25-1.455-3.25-3.249z" fill="#ffffff" data-fill-palette-color="primary"></path><path d="M264.982 142.524c0-1.795 1.455-3.25 3.25-3.25 1.795 0 3.25 1.455 3.25 3.25 0 1.795-1.455 3.25-3.25 3.249-1.795 0-3.25-1.455-3.25-3.249z" fill="#ffffff" data-fill-palette-color="primary"></path></g><g id="text-1"><path d="M11.701 188.891v0c-0.799-2.224-1.038-4.195-0.718-5.912 0.32-1.717 1.421-2.914 3.303-3.591v0c0.196-0.071 0.376-0.128 0.539-0.172 0.163-0.044 0.3-0.072 0.41-0.083v0c0.721-0.144 1.639-0.238 2.753-0.281 1.115-0.043 2.313-0.062 3.596-0.058 1.291 0.008 2.555 0.012 3.792 0.011 1.241-0.01 2.37-0.043 3.387-0.1 1.008-0.062 1.794-0.194 2.358-0.397v0c0.634-0.228 0.876-0.547 0.728-0.959v0c-0.168-0.469-0.724-0.92-1.667-1.354-0.943-0.434-2.171-0.805-3.683-1.113v0l0.026-0.256c1.616-0.58 3.123-0.764 4.523-0.552 1.4 0.212 2.675 0.706 3.826 1.48 1.145 0.776 2.133 1.745 2.965 2.905 0.834 1.167 1.488 2.409 1.961 3.727v0c0.59 1.641 0.88 3.275 0.871 4.903-0.007 1.634-0.334 3.082-0.982 4.345-0.652 1.272-1.685 2.161-3.098 2.668v0c-2.547 0.915-5.085 0.074-7.613-2.523v0c0.24 1.981 0.025 3.575-0.643 4.781-0.668 1.206-1.601 2.024-2.799 2.455v0c-1.052 0.378-2.221 0.448-3.509 0.209-1.288-0.238-2.585-0.774-3.893-1.606-1.299-0.828-2.516-1.954-3.649-3.379-1.136-1.43-2.064-3.147-2.784-5.148zM27.753 184.733v0c0.386 1.135 0.918 2.056 1.594 2.765 0.683 0.706 1.411 1.189 2.183 1.448 0.766 0.261 1.466 0.278 2.1 0.05v0c0.836-0.3 1.419-1.007 1.749-2.12 0.332-1.107 0.16-2.601-0.516-4.483v0c-0.428 0.261-0.87 0.495-1.325 0.702-0.449 0.204-0.892 0.385-1.329 0.542v0c-0.71 0.255-1.435 0.466-2.177 0.632-0.739 0.173-1.499 0.328-2.279 0.465zM16.546 188.309v0c0.378 1.052 0.924 1.904 1.638 2.556 0.72 0.65 1.5 1.089 2.34 1.316 0.838 0.221 1.612 0.204 2.321-0.051v0c0.976-0.351 1.711-1.141 2.207-2.37 0.498-1.223 0.488-2.862-0.028-4.915v0c-0.794 0.178-1.674 0.269-2.639 0.272-0.967-0.003-1.888 0.002-2.762 0.016-0.875 0.014-1.607 0.127-2.197 0.338v0c-0.513 0.184-0.865 0.49-1.055 0.916-0.19 0.426-0.132 1.067 0.175 1.922z" fill="#ffffff" data-fill-palette-color="primary"></path><path d="M28.844 222.635v0c-0.401-0.574-0.647-1.231-0.739-1.972-0.091-0.741 0.061-1.505 0.457-2.291 0.401-0.79 1.101-1.534 2.099-2.232v0c0.894-0.625 2.027-1.237 3.399-1.835 1.376-0.593 2.824-1.19 4.342-1.791 1.513-0.598 2.968-1.213 4.366-1.845 1.396-0.623 2.567-1.281 3.512-1.975v0c0.916-0.64 1.489-1.201 1.719-1.683v0l0.076-0.102c0.845-0.237 1.668-0.193 2.471 0.132 0.797 0.33 1.426 0.823 1.885 1.48v0c0.521 0.745 0.704 1.606 0.551 2.585-0.154 0.978-0.893 1.931-2.218 2.856v0c-0.701 0.49-1.592 0.99-2.673 1.499-1.091 0.508-2.268 1.027-3.531 1.558-1.255 0.532-2.501 1.046-3.74 1.543-1.235 0.502-2.359 0.98-3.372 1.434-1.013 0.454-1.807 0.882-2.381 1.282v0c-0.596 0.417-0.947 0.79-1.054 1.119-0.101 0.325-0.076 0.596 0.074 0.811v0c0.162 0.232 0.409 0.392 0.742 0.479 0.329 0.082 0.591 0.105 0.786 0.067v0l0.113 0.303c-0.782 0.514-1.616 0.773-2.501 0.775-0.889-0.003-1.723-0.196-2.501-0.58-0.776-0.394-1.404-0.933-1.882-1.617z" fill="#ffffff" data-fill-palette-color="primary"></path><path d="M55.408 250.561v0c-0.688-0.594-1.095-1.338-1.222-2.231-0.118-0.894 0.266-1.852 1.151-2.876v0c0.084-0.097 0.167-0.194 0.251-0.291 0.088-0.102 0.184-0.192 0.288-0.271v0c-1.612 0.671-3.027 0.97-4.245 0.896-1.218-0.083-2.202-0.448-2.951-1.095v0c-0.688-0.594-1.128-1.393-1.32-2.395-0.193-1.012-0.068-2.15 0.374-3.414 0.443-1.264 1.24-2.563 2.394-3.898v0c1.189-1.375 2.441-2.438 3.756-3.188 1.315-0.75 2.612-1.226 3.891-1.429 1.274-0.207 2.45-0.179 3.529 0.087 1.074 0.261 1.965 0.697 2.673 1.309v0c0.784 0.678 1.283 1.532 1.496 2.561 0.213 1.02-0.013 2.151-0.676 3.393v0c0.347-0.278 0.655-0.542 0.923-0.79 0.268-0.249 0.444-0.421 0.528-0.518v0c0.477-0.522 1.089-0.683 1.834-0.485 0.74 0.194 1.423 0.562 2.049 1.104v0c0.55 0.475 0.978 1.036 1.282 1.682 0.304 0.637 0.325 1.287 0.064 1.95v0l-0.091 0.229c-0.702 0.328-1.491 0.763-2.368 1.303-0.881 0.546-1.774 1.141-2.677 1.785-0.898 0.648-1.743 1.306-2.534 1.975-0.791 0.678-1.439 1.31-1.945 1.895v0c-0.563 0.652-0.882 1.16-0.956 1.524-0.074 0.363-0.011 0.631 0.188 0.802v0c0.331 0.286 0.839 0.311 1.523 0.075v0l0.131 0.327c-0.577 0.667-1.319 1.089-2.227 1.265-0.903 0.18-1.822 0.152-2.756-0.085-0.924-0.238-1.71-0.637-2.357-1.196zM53.837 242.663v0c0.509 0.44 1.469 0.473 2.879 0.098 1.404-0.379 3.073-1.229 5.005-2.548v0c0.195-0.143 0.381-0.281 0.557-0.413 0.186-0.133 0.357-0.269 0.514-0.41v0c0.314-1.001 0.43-1.8 0.348-2.395-0.082-0.605-0.289-1.051-0.62-1.337v0c-0.494-0.427-1.177-0.563-2.049-0.409-0.872 0.154-1.779 0.509-2.721 1.065-0.947 0.561-1.76 1.233-2.438 2.018v0c-0.933 1.08-1.507 1.99-1.72 2.731-0.208 0.745-0.126 1.279 0.245 1.6z" fill="#ffffff" data-fill-palette-color="primary"></path><path d="M83.007 267.726v0c-1.551-0.72-2.699-1.684-3.445-2.892-0.743-1.198-1.121-2.495-1.134-3.889-0.01-1.4 0.291-2.76 0.903-4.079v0c0.578-1.246 1.398-2.379 2.458-3.401 1.064-1.028 2.311-1.844 3.743-2.449 1.428-0.614 2.965-0.917 4.609-0.91 1.642-0.002 3.348 0.408 5.119 1.23v0c1.74 0.808 2.873 1.757 3.399 2.847 0.526 1.09 0.597 2.048 0.214 2.872v0c-0.405 0.873-1.213 1.47-2.424 1.792-1.213 0.327-2.654 0.104-4.321-0.67v0c0.256-0.312 0.5-0.636 0.731-0.975 0.225-0.341 0.414-0.676 0.567-1.006v0c0.23-0.495 0.319-0.958 0.267-1.39-0.055-0.441-0.354-0.788-0.897-1.041v0c-0.495-0.23-1.123-0.251-1.886-0.062-0.757 0.191-1.533 0.632-2.33 1.323-0.79 0.695-1.48 1.677-2.069 2.947v0c-0.578 1.246-0.844 2.354-0.799 3.326 0.055 0.968 0.333 1.777 0.834 2.425 0.501 0.648 1.114 1.141 1.841 1.478v0c0.965 0.448 2.014 0.627 3.147 0.537 1.127-0.093 2.1-0.495 2.92-1.205v0l0.289 0.312c-0.567 1.221-1.328 2.133-2.284 2.737-0.955 0.603-1.996 0.981-3.12 1.134-1.128 0.144-2.248 0.118-3.36-0.079-1.108-0.203-2.099-0.507-2.972-0.912z" fill="#ffffff" data-fill-palette-color="primary"></path><path d="M124.374 279.494v0c-0.844-0.137-1.606-0.462-2.287-0.975-0.68-0.52-1.189-1.203-1.53-2.049-0.333-0.845-0.413-1.806-0.238-2.883v0c0.179-1.103 0.65-2.302 1.413-3.597v0c0.445-0.139 0.986-0.379 1.621-0.719 0.629-0.348 1.208-0.762 1.736-1.242 0.528-0.48 0.836-0.99 0.923-1.528v0c0.079-0.485-0.045-0.897-0.372-1.237-0.326-0.346-0.758-0.563-1.296-0.651v0c-0.671-0.109-1.333-0.005-1.984 0.313-0.658 0.316-1.266 0.763-1.824 1.34-0.551 0.579-1.011 1.227-1.38 1.945-0.362 0.719-0.599 1.424-0.712 2.115v0c-0.108 0.665-0.126 1.299-0.053 1.905 0.072 0.605 0.048 1.28-0.073 2.024v0c-0.187 1.15-0.654 2.073-1.401 2.77-0.74 0.692-1.714 0.939-2.924 0.743v0c-1.097-0.178-1.921-0.69-2.472-1.537-0.544-0.852-0.712-1.92-0.503-3.202v0c0.108-0.665 0.334-1.535 0.68-2.611 0.345-1.076 0.756-2.261 1.231-3.555 0.468-1.288 0.941-2.623 1.418-4.005 0.477-1.382 0.906-2.721 1.286-4.017 0.381-1.296 0.656-2.468 0.827-3.518v0c0.092-0.565 0.143-1.089 0.153-1.572 0.01-0.483-0.061-0.883-0.214-1.201v0l0.037-0.229c0.662-0.547 1.354-0.923 2.075-1.126 0.714-0.198 1.39-0.245 2.029-0.141v0c0.977 0.159 1.755 0.64 2.333 1.442 0.579 0.803 0.758 1.886 0.537 3.249v0c-0.117 0.718-0.354 1.573-0.713 2.565-0.359 0.992-0.763 2.031-1.212 3.118-0.456 1.086-0.906 2.117-1.352 3.095v0c0.698-0.726 1.476-1.469 2.337-2.229 0.859-0.754 1.786-1.357 2.78-1.81 0.995-0.459 2.058-0.597 3.187-0.414v0c1.303 0.211 2.259 0.793 2.868 1.745 0.608 0.958 0.819 2.012 0.633 3.161v0c-0.188 1.156-0.803 2.322-1.846 3.496-1.049 1.167-2.62 2.04-4.713 2.622v0c0.211 0.798 0.565 1.541 1.061 2.229 0.495 0.687 1.069 1.248 1.722 1.681 0.653 0.433 1.285 0.7 1.896 0.799v0c0.312 0.051 0.59 0.045 0.832-0.019v0l0.202 0.268c-0.885 1.377-1.945 2.341-3.181 2.891-1.228 0.551-2.408 0.735-3.537 0.551z" fill="#ffffff" data-fill-palette-color="primary"></path><path d="M155.401 279.903v0c-1.599 0.18-2.952 0.109-4.059-0.213-1.106-0.316-1.956-0.789-2.548-1.42-0.592-0.624-0.927-1.284-1.006-1.98v0c-0.111-0.983 0.229-1.903 1.02-2.758 0.79-0.861 1.935-1.377 3.434-1.545v0c0.149 1.318 0.434 2.349 0.857 3.094 0.424 0.752 0.918 1.265 1.484 1.54 0.566 0.275 1.094 0.385 1.582 0.33v0c0.595-0.067 1.074-0.297 1.437-0.691 0.362-0.393 0.514-0.847 0.456-1.362v0c-0.081-0.723-0.527-1.313-1.338-1.77-0.81-0.457-1.845-0.954-3.105-1.489v0c-0.636-0.294-1.329-0.643-2.079-1.046-0.749-0.397-1.41-0.908-1.982-1.535-0.566-0.634-0.903-1.426-1.01-2.376v0c-0.114-1.01 0.077-1.933 0.572-2.768 0.495-0.842 1.187-1.58 2.078-2.216 0.897-0.636 1.885-1.154 2.965-1.554 1.08-0.393 2.149-0.649 3.206-0.768v0c1.987-0.224 3.527 0.005 4.62 0.689 1.101 0.689 1.702 1.485 1.804 2.388v0c0.087 0.776-0.222 1.516-0.928 2.218-0.706 0.71-1.858 1.155-3.458 1.335v0c-0.122-1.321-0.501-2.254-1.138-2.798-0.637-0.538-1.276-0.771-1.919-0.699v0c-0.468 0.053-0.841 0.237-1.116 0.553-0.275 0.322-0.382 0.755-0.322 1.297v0c0.069 0.615 0.33 1.128 0.784 1.537 0.445 0.404 0.992 0.745 1.639 1.025 0.648 0.279 1.311 0.54 1.989 0.782v0c0.922 0.309 1.798 0.654 2.627 1.035 0.828 0.374 1.52 0.831 2.075 1.372 0.556 0.54 0.881 1.235 0.977 2.085v0c0.13 1.157-0.216 2.287-1.04 3.39-0.832 1.096-2.003 2.038-3.513 2.824-1.504 0.786-3.185 1.284-5.045 1.494z" fill="#ffffff" data-fill-palette-color="primary"></path><path d="M188.208 272.065v0c-1.028 0.421-1.998 0.414-2.91-0.021-0.909-0.443-1.609-1.266-2.101-2.468v0c-0.265-0.648-0.528-1.53-0.788-2.646-0.26-1.116-0.523-2.354-0.788-3.714-0.262-1.369-0.539-2.758-0.832-4.167-0.298-1.405-0.615-2.756-0.948-4.052-0.334-1.296-0.692-2.412-1.075-3.347v0c-0.482-1.178-0.987-1.968-1.515-2.37v0l-0.088-0.215c0.282-0.821 0.677-1.502 1.183-2.044 0.506-0.542 1.061-0.936 1.665-1.183v0c0.91-0.372 1.824-0.368 2.744 0.012 0.913 0.383 1.635 1.223 2.165 2.519v0c0.285 0.698 0.538 1.591 0.758 2.679 0.22 1.089 0.426 2.241 0.618 3.458 0.183 1.213 0.34 2.352 0.471 3.418v0c0.093-1.071 0.337-2.2 0.731-3.387 0.401-1.19 0.97-2.27 1.708-3.24 0.735-0.977 1.632-1.682 2.691-2.116v0c1.203-0.492 2.166-0.449 2.889 0.128 0.727 0.568 1.317 1.407 1.771 2.516v0c0.413 1.009 0.744 2.129 0.992 3.358 0.255 1.227 0.487 2.409 0.697 3.545 0.21 1.136 0.457 2.05 0.74 2.741v0c0.413 1.009 0.922 1.391 1.526 1.144v0c0.262-0.107 0.464-0.281 0.606-0.521 0.142-0.24 0.22-0.476 0.234-0.707v0l0.329 0.084c0.382 0.935 0.479 1.819 0.289 2.653-0.196 0.837-0.577 1.567-1.144 2.192-0.573 0.627-1.233 1.094-1.981 1.4v0c-0.985 0.403-2.008 0.436-3.069 0.099-1.062-0.337-1.897-1.25-2.506-2.74v0c-0.344-0.841-0.605-1.8-0.784-2.876-0.172-1.079-0.339-2.127-0.501-3.145-0.165-1.009-0.376-1.825-0.63-2.448v0c-0.336-0.823-0.791-1.117-1.365-0.882v0c-0.53 0.217-0.998 0.717-1.404 1.502-0.413 0.787-0.691 1.672-0.834 2.654-0.141 0.989-0.127 1.896 0.043 2.721v0c0.029 0.214 0.097 0.451 0.205 0.713v0c0.247 0.604 0.575 1.147 0.982 1.628 0.405 0.474 0.76 1.086 1.066 1.833v0c0.451 1.103 0.54 2.147 0.266 3.132-0.27 0.976-0.972 1.696-2.106 2.16z" fill="#ffffff" data-fill-palette-color="primary"></path><path d="M231.124 246.751v0c-0.708 0.57-1.513 0.837-2.414 0.801-0.9-0.045-1.774-0.595-2.623-1.649v0c-0.08-0.1-0.16-0.199-0.24-0.299-0.084-0.105-0.156-0.216-0.216-0.332v0c0.37 1.707 0.41 3.152 0.119 4.337-0.301 1.184-0.837 2.086-1.608 2.706v0c-0.708 0.57-1.573 0.859-2.593 0.868-1.03 0.008-2.127-0.319-3.291-0.981-1.164-0.662-2.298-1.681-3.404-3.056v0c-1.139-1.416-1.96-2.839-2.461-4.267-0.501-1.429-0.737-2.79-0.706-4.085 0.025-1.29 0.265-2.442 0.719-3.456 0.449-1.01 1.039-1.808 1.768-2.394v0c0.808-0.65 1.738-0.987 2.789-1.012 1.042-0.026 2.114 0.399 3.216 1.275v0c-0.211-0.392-0.415-0.742-0.612-1.05-0.196-0.309-0.335-0.513-0.415-0.613v0c-0.427-0.563-0.476-1.194-0.147-1.89 0.324-0.693 0.809-1.299 1.454-1.818v0c0.567-0.456 1.195-0.775 1.886-0.959 0.681-0.185 1.324-0.089 1.929 0.288v0l0.209 0.13c0.197 0.749 0.482 1.604 0.857 2.564 0.379 0.965 0.804 1.95 1.274 2.954 0.476 1 0.972 1.949 1.487 2.847 0.525 0.9 1.03 1.651 1.516 2.255v0c0.54 0.671 0.982 1.076 1.326 1.214 0.344 0.138 0.619 0.125 0.823-0.04v0c0.341-0.274 0.457-0.769 0.348-1.485v0l0.345-0.07c0.553 0.687 0.834 1.493 0.844 2.418 0.015 0.921-0.178 1.819-0.579 2.696-0.4 0.866-0.934 1.568-1.6 2.103zM223.073 246.877v0c0.525-0.422 0.729-1.36 0.614-2.814-0.121-1.45-0.656-3.244-1.608-5.382v0c-0.106-0.217-0.208-0.425-0.306-0.622-0.097-0.207-0.201-0.4-0.31-0.579v0c-0.929-0.489-1.693-0.746-2.294-0.773-0.61-0.028-1.085 0.095-1.427 0.369v0c-0.509 0.409-0.766 1.057-0.77 1.942-0.005 0.885 0.181 1.842 0.558 2.869 0.381 1.033 0.897 1.953 1.547 2.761v0c0.895 1.112 1.687 1.84 2.377 2.183 0.696 0.339 1.235 0.354 1.619 0.046z" fill="#ffffff" data-fill-palette-color="primary"></path><path d="M251.159 225.042v0c-0.541 0.764-1.332 1.222-2.373 1.376-1.047 0.15-2.141-0.18-3.284-0.99v0c-0.555-0.393-1.136-0.9-1.744-1.521-0.608-0.621-1.217-1.275-1.828-1.962-0.61-0.688-1.194-1.325-1.753-1.911-0.559-0.586-1.05-1.028-1.473-1.327v0c-0.445-0.315-0.854-0.489-1.226-0.523-0.377-0.027-0.656 0.088-0.839 0.346v0c-0.284 0.401-0.301 1.008-0.052 1.82v0l-0.258 0.102c-0.356-0.219-0.707-0.58-1.054-1.08-0.346-0.501-0.61-1.084-0.791-1.749-0.177-0.67-0.216-1.39-0.115-2.161 0.1-0.771 0.421-1.538 0.962-2.301v0c0.794-1.121 1.696-1.707 2.706-1.759 1.005-0.056 1.963 0.24 2.875 0.886v0c0.148 0.105 0.298 0.22 0.45 0.343 0.152 0.124 0.294 0.249 0.426 0.377v0c-0.838-1.74-1.327-3.287-1.465-4.64-0.139-1.353 0.048-2.392 0.561-3.117v0c0.479-0.676 1.097-0.984 1.856-0.925 0.753 0.055 1.501 0.345 2.243 0.87v0c0.676 0.479 1.27 1.102 1.782 1.869 0.511 0.758 0.811 1.557 0.902 2.397 0.086 0.845-0.144 1.63-0.692 2.356v0l-0.154 0.077c-0.565-0.367-1.127-0.493-1.687-0.378-0.556 0.109-0.986 0.378-1.289 0.806v0c-0.405 0.571-0.497 1.307-0.276 2.206 0.223 0.909 0.872 1.744 1.95 2.507v0c0.659 0.467 1.423 0.897 2.292 1.29 0.869 0.393 1.567 0.776 2.094 1.149v0c0.637 0.451 1.115 1.012 1.432 1.682 0.323 0.674 0.473 1.354 0.449 2.039-0.029 0.681-0.238 1.296-0.627 1.846z" fill="#ffffff" data-fill-palette-color="primary"></path><path d="M271.745 184.824v0c-0.291 0.804-0.751 1.493-1.381 2.066-0.636 0.572-1.402 0.946-2.297 1.124-0.892 0.171-1.851 0.071-2.877-0.3v0c-1.051-0.38-2.142-1.065-3.273-2.055v0c-0.054-0.464-0.19-1.039-0.407-1.725-0.225-0.683-0.525-1.328-0.899-1.937-0.374-0.608-0.818-1.005-1.331-1.19v0c-0.462-0.167-0.89-0.122-1.284 0.136-0.401 0.256-0.694 0.64-0.879 1.154v0c-0.231 0.639-0.252 1.309-0.061 2.007 0.189 0.705 0.515 1.386 0.98 2.041 0.467 0.649 1.019 1.221 1.655 1.716 0.639 0.489 1.288 0.853 1.947 1.091v0c0.633 0.229 1.254 0.364 1.862 0.405 0.608 0.041 1.267 0.19 1.975 0.447v0c1.095 0.396 1.916 1.026 2.463 1.89 0.543 0.855 0.605 1.859 0.188 3.011v0c-0.378 1.045-1.034 1.759-1.968 2.144-0.938 0.376-2.018 0.344-3.24-0.098v0c-0.633-0.229-1.446-0.613-2.44-1.152-0.994-0.539-2.082-1.162-3.265-1.869-1.179-0.699-2.404-1.41-3.674-2.135-1.27-0.725-2.506-1.394-3.708-2.008-1.203-0.614-2.304-1.102-3.305-1.464v0c-0.538-0.195-1.043-0.342-1.515-0.441-0.472-0.099-0.879-0.103-1.22-0.012v0l-0.219-0.079c-0.415-0.752-0.656-1.501-0.722-2.248-0.062-0.738 0.017-1.412 0.237-2.019v0c0.337-0.931 0.953-1.606 1.85-2.026 0.897-0.42 1.994-0.395 3.292 0.074v0c0.684 0.247 1.48 0.639 2.388 1.176 0.908 0.536 1.855 1.126 2.839 1.768 0.982 0.649 1.913 1.283 2.792 1.902v0c-0.584-0.82-1.17-1.723-1.758-2.709-0.582-0.984-1.003-2.006-1.264-3.067-0.267-1.063-0.205-2.133 0.184-3.209v0c0.449-1.241 1.198-2.073 2.246-2.496 1.054-0.42 2.129-0.432 3.224-0.036v0c1.102 0.399 2.133 1.219 3.093 2.462 0.952 1.247 1.52 2.952 1.704 5.117v0c0.824-0.06 1.619-0.27 2.386-0.63 0.767-0.36 1.424-0.82 1.971-1.381 0.547-0.561 0.925-1.133 1.136-1.715v0c0.108-0.298 0.153-0.571 0.136-0.821v0l0.301-0.148c1.19 1.125 1.94 2.345 2.252 3.66 0.314 1.309 0.276 2.502-0.114 3.579z" fill="#ffffff" data-fill-palette-color="primary"></path></g></svg></g></svg></g></svg></g><g></g></svg></g><defs></defs></svg><rect width="280" height="280" fill="none" stroke="none" visibility="hidden"></rect></g></svg></g></svg>